<?xml version="1.0" encoding="UTF-8" standalone="no"?>
<!DOCTYPE svg PUBLIC "-//W3C//DTD SVG 1.1//EN"
 "http://www.w3.org/Graphics/SVG/1.1/DTD/svg11.dtd">
<!-- Generated by graphviz version 5.0.0 (20220707.1540)
 -->
<!-- Title: dependencies Pages: 1 -->
<svg width="1097pt" height="174pt"
 viewBox="0.00 0.00 1097.00 173.80" xmlns="http://www.w3.org/2000/svg" xmlns:xlink="http://www.w3.org/1999/xlink">
<g id="graph0" class="graph" transform="scale(1 1) rotate(0) translate(4 169.8)">
<title>dependencies</title>
<polygon fill="white" stroke="transparent" points="-4,4 -4,-169.8 1093,-169.8 1093,4 -4,4"/>
<text text-anchor="middle" x="544.5" y="-8.2" font-family="sans-serif" font-size="14.00">dependencies</text>
<g id="clust1" class="cluster">
<title>cluster_DashboardModule</title>
<polygon fill="none" stroke="black" stroke-dasharray="1,5" points="8,-32.8 8,-157.8 1081,-157.8 1081,-32.8 8,-32.8"/>
</g>
<g id="clust8" class="cluster">
<title>cluster_DashboardModule_imports</title>
<polygon fill="none" stroke="black" points="959,-40.8 959,-92.8 1073,-92.8 1073,-40.8 959,-40.8"/>
</g>
<g id="clust11" class="cluster">
<title>cluster_DashboardModule_providers</title>
<polygon fill="none" stroke="black" points="821,-40.8 821,-92.8 951,-92.8 951,-40.8 821,-40.8"/>
</g>
<g id="clust2" class="cluster">
<title>cluster_DashboardModule_declarations</title>
<polygon fill="none" stroke="black" points="16,-40.8 16,-92.8 813,-92.8 813,-40.8 16,-40.8"/>
</g>
<!-- CarouselComponent -->
<g id="node1" class="node">
<title>CarouselComponent</title>
<polygon fill="#ffffb3" stroke="black" points="804.6,-84.8 673.4,-84.8 673.4,-48.8 804.6,-48.8 804.6,-84.8"/>
<text text-anchor="middle" x="739" y="-62.6" font-family="Times,serif" font-size="14.00">CarouselComponent</text>
</g>
<!-- DashboardModule -->
<g id="node6" class="node">
<title>DashboardModule</title>
<polygon fill="#8dd3c7" stroke="black" points="650.2,-149.8 647.2,-153.8 626.2,-153.8 623.2,-149.8 529.8,-149.8 529.8,-113.8 650.2,-113.8 650.2,-149.8"/>
<text text-anchor="middle" x="590" y="-127.6" font-family="Times,serif" font-size="14.00">DashboardModule</text>
</g>
<!-- CarouselComponent&#45;&gt;DashboardModule -->
<g id="edge1" class="edge">
<title>CarouselComponent&#45;&gt;DashboardModule</title>
<path fill="none" stroke="black" d="M739,-84.83C739,-101.2 739,-122.8 739,-122.8 739,-122.8 660.17,-122.8 660.17,-122.8"/>
<polygon fill="black" stroke="black" points="660.17,-119.3 650.17,-122.8 660.17,-126.3 660.17,-119.3"/>
</g>
<!-- ChatBoxComponent -->
<g id="node2" class="node">
<title>ChatBoxComponent</title>
<polygon fill="#ffffb3" stroke="black" points="655.61,-84.8 524.39,-84.8 524.39,-48.8 655.61,-48.8 655.61,-84.8"/>
<text text-anchor="middle" x="590" y="-62.6" font-family="Times,serif" font-size="14.00">ChatBoxComponent</text>
</g>
<!-- ChatBoxComponent&#45;&gt;DashboardModule -->
<g id="edge2" class="edge">
<title>ChatBoxComponent&#45;&gt;DashboardModule</title>
<path fill="none" stroke="black" d="M590,-84.91C590,-84.91 590,-103.79 590,-103.79"/>
<polygon fill="black" stroke="black" points="586.5,-103.79 590,-113.79 593.5,-103.79 586.5,-103.79"/>
</g>
<!-- DashboardComponent -->
<g id="node3" class="node">
<title>DashboardComponent</title>
<polygon fill="#ffffb3" stroke="black" points="505.98,-84.8 364.02,-84.8 364.02,-48.8 505.98,-48.8 505.98,-84.8"/>
<text text-anchor="middle" x="435" y="-62.6" font-family="Times,serif" font-size="14.00">DashboardComponent</text>
</g>
<!-- DashboardComponent&#45;&gt;DashboardModule -->
<g id="edge3" class="edge">
<title>DashboardComponent&#45;&gt;DashboardModule</title>
<path fill="none" stroke="black" d="M435,-84.83C435,-101.2 435,-122.8 435,-122.8 435,-122.8 519.63,-122.8 519.63,-122.8"/>
<polygon fill="black" stroke="black" points="519.63,-126.3 529.63,-122.8 519.63,-119.3 519.63,-126.3"/>
</g>
<!-- DashboardSidebarComponent -->
<g id="node4" class="node">
<title>DashboardSidebarComponent</title>
<polygon fill="#ffffb3" stroke="black" points="346.25,-84.8 161.75,-84.8 161.75,-48.8 346.25,-48.8 346.25,-84.8"/>
<text text-anchor="middle" x="254" y="-62.6" font-family="Times,serif" font-size="14.00">DashboardSidebarComponent</text>
</g>
<!-- DashboardSidebarComponent&#45;&gt;DashboardModule -->
<g id="edge4" class="edge">
<title>DashboardSidebarComponent&#45;&gt;DashboardModule</title>
<path fill="none" stroke="black" d="M254,-84.91C254,-104.14 254,-131.8 254,-131.8 254,-131.8 519.54,-131.8 519.54,-131.8"/>
<polygon fill="black" stroke="black" points="519.54,-135.3 529.54,-131.8 519.54,-128.3 519.54,-135.3"/>
</g>
<!-- SearchComponent -->
<g id="node5" class="node">
<title>SearchComponent</title>
<polygon fill="#ffffb3" stroke="black" points="143.92,-84.8 24.08,-84.8 24.08,-48.8 143.92,-48.8 143.92,-84.8"/>
<text text-anchor="middle" x="84" y="-62.6" font-family="Times,serif" font-size="14.00">SearchComponent</text>
</g>
<!-- SearchComponent&#45;&gt;DashboardModule -->
<g id="edge5" class="edge">
<title>SearchComponent&#45;&gt;DashboardModule</title>
<path fill="none" stroke="black" d="M84,-85.09C84,-107.01 84,-140.8 84,-140.8 84,-140.8 519.72,-140.8 519.72,-140.8"/>
<polygon fill="black" stroke="black" points="519.72,-144.3 529.72,-140.8 519.72,-137.3 519.72,-144.3"/>
</g>
<!-- ButtonModule -->
<g id="node7" class="node">
<title>ButtonModule</title>
<polygon fill="#8dd3c7" stroke="black" points="1064.67,-84.8 1061.67,-88.8 1040.67,-88.8 1037.67,-84.8 967.33,-84.8 967.33,-48.8 1064.67,-48.8 1064.67,-84.8"/>
<text text-anchor="middle" x="1016" y="-62.6" font-family="Times,serif" font-size="14.00">ButtonModule</text>
</g>
<!-- ButtonModule&#45;&gt;DashboardModule -->
<g id="edge6" class="edge">
<title>ButtonModule&#45;&gt;DashboardModule</title>
<path fill="none" stroke="black" d="M1016,-85.09C1016,-107.01 1016,-140.8 1016,-140.8 1016,-140.8 660.13,-140.8 660.13,-140.8"/>
<polygon fill="black" stroke="black" points="660.13,-137.3 650.13,-140.8 660.13,-144.3 660.13,-137.3"/>
</g>
<!-- PostService -->
<g id="node8" class="node">
<title>PostService</title>
<ellipse fill="#fdb462" stroke="black" cx="886" cy="-66.8" rx="56.77" ry="18"/>
<text text-anchor="middle" x="886" y="-62.6" font-family="Times,serif" font-size="14.00">PostService</text>
</g>
<!-- PostService&#45;&gt;DashboardModule -->
<g id="edge7" class="edge">
<title>PostService&#45;&gt;DashboardModule</title>
<path fill="none" stroke="black" d="M886,-84.91C886,-104.14 886,-131.8 886,-131.8 886,-131.8 660.26,-131.8 660.26,-131.8"/>
<polygon fill="black" stroke="black" points="660.26,-128.3 650.26,-131.8 660.26,-135.3 660.26,-128.3"/>
</g>
</g>
</svg>
