<?xml version="1.0" encoding="UTF-8" standalone="no"?>
<!DOCTYPE svg PUBLIC "-//W3C//DTD SVG 1.1//EN"
 "http://www.w3.org/Graphics/SVG/1.1/DTD/svg11.dtd">
<!-- Generated by graphviz version 5.0.0 (20220707.1540)
 -->
<!-- Title: dependencies Pages: 1 -->
<svg width="348pt" height="174pt"
 viewBox="0.00 0.00 348.00 173.80" xmlns="http://www.w3.org/2000/svg" xmlns:xlink="http://www.w3.org/1999/xlink">
<g id="graph0" class="graph" transform="scale(1 1) rotate(0) translate(4 169.8)">
<title>dependencies</title>
<polygon fill="white" stroke="transparent" points="-4,4 -4,-169.8 344,-169.8 344,4 -4,4"/>
<text text-anchor="middle" x="170" y="-8.2" font-family="sans-serif" font-size="14.00">dependencies</text>
<g id="clust1" class="cluster">
<title>cluster_CreateNewItemModule</title>
<polygon fill="none" stroke="black" stroke-dasharray="1,5" points="8,-32.8 8,-157.8 332,-157.8 332,-32.8 8,-32.8"/>
</g>
<g id="clust2" class="cluster">
<title>cluster_CreateNewItemModule_declarations</title>
<polygon fill="none" stroke="black" points="138,-40.8 138,-92.8 324,-92.8 324,-40.8 138,-40.8"/>
</g>
<g id="clust4" class="cluster">
<title>cluster_CreateNewItemModule_imports</title>
<polygon fill="none" stroke="black" points="16,-40.8 16,-92.8 130,-92.8 130,-40.8 16,-40.8"/>
</g>
<!-- CreateNewItemComponent -->
<g id="node1" class="node">
<title>CreateNewItemComponent</title>
<polygon fill="#ffffb3" stroke="black" points="315.95,-84.8 146.05,-84.8 146.05,-48.8 315.95,-48.8 315.95,-84.8"/>
<text text-anchor="middle" x="231" y="-62.6" font-family="Times,serif" font-size="14.00">CreateNewItemComponent</text>
</g>
<!-- CreateNewItemModule -->
<g id="node2" class="node">
<title>CreateNewItemModule</title>
<polygon fill="#8dd3c7" stroke="black" points="234.17,-149.8 231.17,-153.8 210.17,-153.8 207.17,-149.8 85.83,-149.8 85.83,-113.8 234.17,-113.8 234.17,-149.8"/>
<text text-anchor="middle" x="160" y="-127.6" font-family="Times,serif" font-size="14.00">CreateNewItemModule</text>
</g>
<!-- CreateNewItemComponent&#45;&gt;CreateNewItemModule -->
<g id="edge1" class="edge">
<title>CreateNewItemComponent&#45;&gt;CreateNewItemModule</title>
<path fill="none" stroke="black" d="M190.06,-84.91C190.06,-84.91 190.06,-103.79 190.06,-103.79"/>
<polygon fill="black" stroke="black" points="186.56,-103.79 190.06,-113.79 193.56,-103.79 186.56,-103.79"/>
</g>
<!-- ButtonModule -->
<g id="node3" class="node">
<title>ButtonModule</title>
<polygon fill="#8dd3c7" stroke="black" points="121.67,-84.8 118.67,-88.8 97.67,-88.8 94.67,-84.8 24.33,-84.8 24.33,-48.8 121.67,-48.8 121.67,-84.8"/>
<text text-anchor="middle" x="73" y="-62.6" font-family="Times,serif" font-size="14.00">ButtonModule</text>
</g>
<!-- ButtonModule&#45;&gt;CreateNewItemModule -->
<g id="edge2" class="edge">
<title>ButtonModule&#45;&gt;CreateNewItemModule</title>
<path fill="none" stroke="black" d="M103.87,-84.91C103.87,-84.91 103.87,-103.79 103.87,-103.79"/>
<polygon fill="black" stroke="black" points="100.37,-103.79 103.87,-113.79 107.37,-103.79 100.37,-103.79"/>
</g>
</g>
</svg>
