<?xml version="1.0" encoding="UTF-8" standalone="no"?>
<!DOCTYPE svg PUBLIC "-//W3C//DTD SVG 1.1//EN"
 "http://www.w3.org/Graphics/SVG/1.1/DTD/svg11.dtd">
<!-- Generated by graphviz version 5.0.0 (20220707.1540)
 -->
<!-- Title: dependencies Pages: 1 -->
<svg width="288pt" height="174pt"
 viewBox="0.00 0.00 288.00 173.80" xmlns="http://www.w3.org/2000/svg" xmlns:xlink="http://www.w3.org/1999/xlink">
<g id="graph0" class="graph" transform="scale(1 1) rotate(0) translate(4 169.8)">
<title>dependencies</title>
<polygon fill="white" stroke="transparent" points="-4,4 -4,-169.8 284,-169.8 284,4 -4,4"/>
<text text-anchor="middle" x="140" y="-8.2" font-family="sans-serif" font-size="14.00">dependencies</text>
<g id="clust1" class="cluster">
<title>cluster_IssueModule</title>
<polygon fill="none" stroke="black" stroke-dasharray="1,5" points="8,-32.8 8,-157.8 272,-157.8 272,-32.8 8,-32.8"/>
</g>
<g id="clust4" class="cluster">
<title>cluster_IssueModule_imports</title>
<polygon fill="none" stroke="black" points="150,-40.8 150,-92.8 264,-92.8 264,-40.8 150,-40.8"/>
</g>
<g id="clust2" class="cluster">
<title>cluster_IssueModule_declarations</title>
<polygon fill="none" stroke="black" points="16,-40.8 16,-92.8 142,-92.8 142,-40.8 16,-40.8"/>
</g>
<!-- IssueComponent -->
<g id="node1" class="node">
<title>IssueComponent</title>
<polygon fill="#ffffb3" stroke="black" points="134.1,-84.8 23.9,-84.8 23.9,-48.8 134.1,-48.8 134.1,-84.8"/>
<text text-anchor="middle" x="79" y="-62.6" font-family="Times,serif" font-size="14.00">IssueComponent</text>
</g>
<!-- IssueModule -->
<g id="node2" class="node">
<title>IssueModule</title>
<polygon fill="#8dd3c7" stroke="black" points="187.32,-149.8 184.32,-153.8 163.32,-153.8 160.32,-149.8 98.68,-149.8 98.68,-113.8 187.32,-113.8 187.32,-149.8"/>
<text text-anchor="middle" x="143" y="-127.6" font-family="Times,serif" font-size="14.00">IssueModule</text>
</g>
<!-- IssueComponent&#45;&gt;IssueModule -->
<g id="edge1" class="edge">
<title>IssueComponent&#45;&gt;IssueModule</title>
<path fill="none" stroke="black" d="M116.44,-84.91C116.44,-84.91 116.44,-103.79 116.44,-103.79"/>
<polygon fill="black" stroke="black" points="112.94,-103.79 116.44,-113.79 119.94,-103.79 112.94,-103.79"/>
</g>
<!-- ButtonModule -->
<g id="node3" class="node">
<title>ButtonModule</title>
<polygon fill="#8dd3c7" stroke="black" points="255.67,-84.8 252.67,-88.8 231.67,-88.8 228.67,-84.8 158.33,-84.8 158.33,-48.8 255.67,-48.8 255.67,-84.8"/>
<text text-anchor="middle" x="207" y="-62.6" font-family="Times,serif" font-size="14.00">ButtonModule</text>
</g>
<!-- ButtonModule&#45;&gt;IssueModule -->
<g id="edge2" class="edge">
<title>ButtonModule&#45;&gt;IssueModule</title>
<path fill="none" stroke="black" d="M172.66,-84.91C172.66,-84.91 172.66,-103.79 172.66,-103.79"/>
<polygon fill="black" stroke="black" points="169.16,-103.79 172.66,-113.79 176.16,-103.79 169.16,-103.79"/>
</g>
</g>
</svg>
