<?xml version="1.0" encoding="UTF-8" standalone="no"?>
<!DOCTYPE svg PUBLIC "-//W3C//DTD SVG 1.1//EN"
 "http://www.w3.org/Graphics/SVG/1.1/DTD/svg11.dtd">
<!-- Generated by graphviz version 5.0.0 (20220707.1540)
 -->
<!-- Title: dependencies Pages: 1 -->
<svg width="168pt" height="174pt"
 viewBox="0.00 0.00 168.00 173.80" xmlns="http://www.w3.org/2000/svg" xmlns:xlink="http://www.w3.org/1999/xlink">
<g id="graph0" class="graph" transform="scale(1 1) rotate(0) translate(4 169.8)">
<title>dependencies</title>
<polygon fill="white" stroke="transparent" points="-4,4 -4,-169.8 164,-169.8 164,4 -4,4"/>
<text text-anchor="middle" x="80" y="-8.2" font-family="sans-serif" font-size="14.00">dependencies</text>
<g id="clust1" class="cluster">
<title>cluster_OfferModule</title>
<polygon fill="none" stroke="black" stroke-dasharray="1,5" points="8,-32.8 8,-157.8 152,-157.8 152,-32.8 8,-32.8"/>
</g>
<g id="clust2" class="cluster">
<title>cluster_OfferModule_declarations</title>
<polygon fill="none" stroke="black" points="16,-40.8 16,-92.8 144,-92.8 144,-40.8 16,-40.8"/>
</g>
<!-- OfferComponent -->
<g id="node1" class="node">
<title>OfferComponent</title>
<polygon fill="#ffffb3" stroke="black" points="135.64,-84.8 24.36,-84.8 24.36,-48.8 135.64,-48.8 135.64,-84.8"/>
<text text-anchor="middle" x="80" y="-62.6" font-family="Times,serif" font-size="14.00">OfferComponent</text>
</g>
<!-- OfferModule -->
<g id="node2" class="node">
<title>OfferModule</title>
<polygon fill="#8dd3c7" stroke="black" points="124.86,-149.8 121.86,-153.8 100.86,-153.8 97.86,-149.8 35.14,-149.8 35.14,-113.8 124.86,-113.8 124.86,-149.8"/>
<text text-anchor="middle" x="80" y="-127.6" font-family="Times,serif" font-size="14.00">OfferModule</text>
</g>
<!-- OfferComponent&#45;&gt;OfferModule -->
<g id="edge1" class="edge">
<title>OfferComponent&#45;&gt;OfferModule</title>
<path fill="none" stroke="black" d="M80,-84.91C80,-84.91 80,-103.79 80,-103.79"/>
<polygon fill="black" stroke="black" points="76.5,-103.79 80,-113.79 83.5,-103.79 76.5,-103.79"/>
</g>
</g>
</svg>
