<?xml version="1.0" encoding="UTF-8" standalone="no"?>
<!DOCTYPE svg PUBLIC "-//W3C//DTD SVG 1.1//EN"
 "http://www.w3.org/Graphics/SVG/1.1/DTD/svg11.dtd">
<!-- Generated by graphviz version 5.0.0 (20220707.1540)
 -->
<!-- Title: dependencies Pages: 1 -->
<svg width="2431pt" height="247pt"
 viewBox="0.00 0.00 2431.00 246.80" xmlns="http://www.w3.org/2000/svg" xmlns:xlink="http://www.w3.org/1999/xlink">
<g id="graph0" class="graph" transform="scale(1 1) rotate(0) translate(4 242.8)">
<title>dependencies</title>
<polygon fill="white" stroke="transparent" points="-4,4 -4,-242.8 2427,-242.8 2427,4 -4,4"/>
<text text-anchor="middle" x="1211.5" y="-8.2" font-family="sans-serif" font-size="14.00">dependencies</text>
<g id="clust1" class="cluster">
<title>cluster_AppModule</title>
<polygon fill="none" stroke="black" stroke-dasharray="1,5" points="8,-32.8 8,-230.8 2415,-230.8 2415,-32.8 8,-32.8"/>
</g>
<g id="clust9" class="cluster">
<title>cluster_AppModule_providers</title>
<polygon fill="none" stroke="black" points="1986,-40.8 1986,-92.8 2407,-92.8 2407,-40.8 1986,-40.8"/>
</g>
<g id="clust8" class="cluster">
<title>cluster_AppModule_bootstrap</title>
<polygon fill="none" stroke="black" points="1102,-170.8 1102,-222.8 1226,-222.8 1226,-170.8 1102,-170.8"/>
</g>
<g id="clust2" class="cluster">
<title>cluster_AppModule_declarations</title>
<polygon fill="none" stroke="black" points="1578,-40.8 1578,-92.8 1978,-92.8 1978,-40.8 1578,-40.8"/>
</g>
<g id="clust6" class="cluster">
<title>cluster_AppModule_imports</title>
<polygon fill="none" stroke="black" points="16,-40.8 16,-92.8 1570,-92.8 1570,-40.8 16,-40.8"/>
</g>
<!-- AppComponent -->
<g id="node1" class="node">
<title>AppComponent</title>
<polygon fill="#ffffb3" stroke="black" points="1969.94,-84.8 1864.06,-84.8 1864.06,-48.8 1969.94,-48.8 1969.94,-84.8"/>
<text text-anchor="middle" x="1917" y="-62.6" font-family="Times,serif" font-size="14.00">AppComponent</text>
</g>
<!-- AppModule -->
<g id="node4" class="node">
<title>AppModule</title>
<polygon fill="#8dd3c7" stroke="black" points="1205.66,-149.8 1202.66,-153.8 1181.66,-153.8 1178.66,-149.8 1122.34,-149.8 1122.34,-113.8 1205.66,-113.8 1205.66,-149.8"/>
<text text-anchor="middle" x="1164" y="-127.6" font-family="Times,serif" font-size="14.00">AppModule</text>
</g>
<!-- AppComponent&#45;&gt;AppModule -->
<g id="edge1" class="edge">
<title>AppComponent&#45;&gt;AppModule</title>
<path fill="none" stroke="black" d="M1917,-85.11C1917,-104.95 1917,-133.8 1917,-133.8 1917,-133.8 1215.83,-133.8 1215.83,-133.8"/>
<polygon fill="black" stroke="black" points="1215.83,-130.3 1205.83,-133.8 1215.83,-137.3 1215.83,-130.3"/>
</g>
<!-- FooterComponent -->
<g id="node2" class="node">
<title>FooterComponent</title>
<polygon fill="#ffffb3" stroke="black" points="1845.88,-84.8 1728.12,-84.8 1728.12,-48.8 1845.88,-48.8 1845.88,-84.8"/>
<text text-anchor="middle" x="1787" y="-62.6" font-family="Times,serif" font-size="14.00">FooterComponent</text>
</g>
<!-- FooterComponent&#45;&gt;AppModule -->
<g id="edge2" class="edge">
<title>FooterComponent&#45;&gt;AppModule</title>
<path fill="none" stroke="black" d="M1787,-85.02C1787,-103.63 1787,-129.8 1787,-129.8 1787,-129.8 1215.84,-129.8 1215.84,-129.8"/>
<polygon fill="black" stroke="black" points="1215.84,-126.3 1205.84,-129.8 1215.84,-133.3 1215.84,-126.3"/>
</g>
<!-- NavBarComponent -->
<g id="node3" class="node">
<title>NavBarComponent</title>
<polygon fill="#ffffb3" stroke="black" points="1710.37,-84.8 1585.63,-84.8 1585.63,-48.8 1710.37,-48.8 1710.37,-84.8"/>
<text text-anchor="middle" x="1648" y="-62.6" font-family="Times,serif" font-size="14.00">NavBarComponent</text>
</g>
<!-- NavBarComponent&#45;&gt;AppModule -->
<g id="edge3" class="edge">
<title>NavBarComponent&#45;&gt;AppModule</title>
<path fill="none" stroke="black" d="M1648,-84.82C1648,-102.17 1648,-125.8 1648,-125.8 1648,-125.8 1215.68,-125.8 1215.68,-125.8"/>
<polygon fill="black" stroke="black" points="1215.68,-122.3 1205.68,-125.8 1215.68,-129.3 1215.68,-122.3"/>
</g>
<!-- AppComponent  -->
<g id="node16" class="node">
<title>AppComponent </title>
<polygon fill="#80b1d3" stroke="black" points="1218.44,-214.8 1109.56,-214.8 1109.56,-178.8 1218.44,-178.8 1218.44,-214.8"/>
<text text-anchor="middle" x="1164" y="-192.6" font-family="Times,serif" font-size="14.00">AppComponent </text>
</g>
<!-- AppModule&#45;&gt;AppComponent  -->
<g id="edge15" class="edge">
<title>AppModule&#45;&gt;AppComponent </title>
<path fill="none" stroke="black" stroke-dasharray="1,5" d="M1164,-149.91C1164,-149.91 1164,-168.79 1164,-168.79"/>
<polygon fill="black" stroke="black" points="1160.5,-168.79 1164,-178.79 1167.5,-168.79 1160.5,-168.79"/>
</g>
<!-- AdminDashboardModule -->
<g id="node5" class="node">
<title>AdminDashboardModule</title>
<polygon fill="#8dd3c7" stroke="black" points="1561.59,-84.8 1558.59,-88.8 1537.59,-88.8 1534.59,-84.8 1402.41,-84.8 1402.41,-48.8 1561.59,-48.8 1561.59,-84.8"/>
<text text-anchor="middle" x="1482" y="-62.6" font-family="Times,serif" font-size="14.00">AdminDashboardModule</text>
</g>
<!-- AdminDashboardModule&#45;&gt;AppModule -->
<g id="edge4" class="edge">
<title>AdminDashboardModule&#45;&gt;AppModule</title>
<path fill="none" stroke="black" d="M1482,-84.81C1482,-100.85 1482,-121.8 1482,-121.8 1482,-121.8 1215.9,-121.8 1215.9,-121.8"/>
<polygon fill="black" stroke="black" points="1215.9,-118.3 1205.9,-121.8 1215.9,-125.3 1215.9,-118.3"/>
</g>
<!-- AppRoutingModule -->
<g id="node6" class="node">
<title>AppRoutingModule</title>
<polygon fill="#8dd3c7" stroke="black" points="1384.28,-84.8 1381.28,-88.8 1360.28,-88.8 1357.28,-84.8 1255.72,-84.8 1255.72,-48.8 1384.28,-48.8 1384.28,-84.8"/>
<text text-anchor="middle" x="1320" y="-62.6" font-family="Times,serif" font-size="14.00">AppRoutingModule</text>
</g>
<!-- AppRoutingModule&#45;&gt;AppModule -->
<g id="edge5" class="edge">
<title>AppRoutingModule&#45;&gt;AppModule</title>
<path fill="none" stroke="black" d="M1320,-84.92C1320,-99.58 1320,-117.8 1320,-117.8 1320,-117.8 1215.81,-117.8 1215.81,-117.8"/>
<polygon fill="black" stroke="black" points="1215.81,-114.3 1205.81,-117.8 1215.81,-121.3 1215.81,-114.3"/>
</g>
<!-- CreateNewItemModule -->
<g id="node7" class="node">
<title>CreateNewItemModule</title>
<polygon fill="#8dd3c7" stroke="black" points="1238.17,-84.8 1235.17,-88.8 1214.17,-88.8 1211.17,-84.8 1089.83,-84.8 1089.83,-48.8 1238.17,-48.8 1238.17,-84.8"/>
<text text-anchor="middle" x="1164" y="-62.6" font-family="Times,serif" font-size="14.00">CreateNewItemModule</text>
</g>
<!-- CreateNewItemModule&#45;&gt;AppModule -->
<g id="edge6" class="edge">
<title>CreateNewItemModule&#45;&gt;AppModule</title>
<path fill="none" stroke="black" d="M1164,-84.91C1164,-84.91 1164,-103.79 1164,-103.79"/>
<polygon fill="black" stroke="black" points="1160.5,-103.79 1164,-113.79 1167.5,-103.79 1160.5,-103.79"/>
</g>
<!-- DashboardModule -->
<g id="node8" class="node">
<title>DashboardModule</title>
<polygon fill="#8dd3c7" stroke="black" points="1072.2,-84.8 1069.2,-88.8 1048.2,-88.8 1045.2,-84.8 951.8,-84.8 951.8,-48.8 1072.2,-48.8 1072.2,-84.8"/>
<text text-anchor="middle" x="1012" y="-62.6" font-family="Times,serif" font-size="14.00">DashboardModule</text>
</g>
<!-- DashboardModule&#45;&gt;AppModule -->
<g id="edge7" class="edge">
<title>DashboardModule&#45;&gt;AppModule</title>
<path fill="none" stroke="black" d="M1012,-84.92C1012,-99.58 1012,-117.8 1012,-117.8 1012,-117.8 1112.06,-117.8 1112.06,-117.8"/>
<polygon fill="black" stroke="black" points="1112.06,-121.3 1122.06,-117.8 1112.06,-114.3 1112.06,-121.3"/>
</g>
<!-- IssueModule -->
<g id="node9" class="node">
<title>IssueModule</title>
<polygon fill="#8dd3c7" stroke="black" points="934.32,-84.8 931.32,-88.8 910.32,-88.8 907.32,-84.8 845.68,-84.8 845.68,-48.8 934.32,-48.8 934.32,-84.8"/>
<text text-anchor="middle" x="890" y="-62.6" font-family="Times,serif" font-size="14.00">IssueModule</text>
</g>
<!-- IssueModule&#45;&gt;AppModule -->
<g id="edge8" class="edge">
<title>IssueModule&#45;&gt;AppModule</title>
<path fill="none" stroke="black" d="M890,-84.81C890,-100.85 890,-121.8 890,-121.8 890,-121.8 1112.09,-121.8 1112.09,-121.8"/>
<polygon fill="black" stroke="black" points="1112.09,-125.3 1122.09,-121.8 1112.09,-118.3 1112.09,-125.3"/>
</g>
<!-- LoginModule -->
<g id="node10" class="node">
<title>LoginModule</title>
<polygon fill="#8dd3c7" stroke="black" points="827.49,-84.8 824.49,-88.8 803.49,-88.8 800.49,-84.8 734.51,-84.8 734.51,-48.8 827.49,-48.8 827.49,-84.8"/>
<text text-anchor="middle" x="781" y="-62.6" font-family="Times,serif" font-size="14.00">LoginModule</text>
</g>
<!-- LoginModule&#45;&gt;AppModule -->
<g id="edge9" class="edge">
<title>LoginModule&#45;&gt;AppModule</title>
<path fill="none" stroke="black" d="M781,-84.82C781,-102.17 781,-125.8 781,-125.8 781,-125.8 1112.28,-125.8 1112.28,-125.8"/>
<polygon fill="black" stroke="black" points="1112.28,-129.3 1122.28,-125.8 1112.28,-122.3 1112.28,-129.3"/>
</g>
<!-- MessageModule -->
<g id="node11" class="node">
<title>MessageModule</title>
<polygon fill="#8dd3c7" stroke="black" points="716.04,-84.8 713.04,-88.8 692.04,-88.8 689.04,-84.8 607.96,-84.8 607.96,-48.8 716.04,-48.8 716.04,-84.8"/>
<text text-anchor="middle" x="662" y="-62.6" font-family="Times,serif" font-size="14.00">MessageModule</text>
</g>
<!-- MessageModule&#45;&gt;AppModule -->
<g id="edge10" class="edge">
<title>MessageModule&#45;&gt;AppModule</title>
<path fill="none" stroke="black" d="M662,-85.02C662,-103.63 662,-129.8 662,-129.8 662,-129.8 1112.06,-129.8 1112.06,-129.8"/>
<polygon fill="black" stroke="black" points="1112.06,-133.3 1122.06,-129.8 1112.06,-126.3 1112.06,-133.3"/>
</g>
<!-- OfferModule -->
<g id="node12" class="node">
<title>OfferModule</title>
<polygon fill="#8dd3c7" stroke="black" points="589.86,-84.8 586.86,-88.8 565.86,-88.8 562.86,-84.8 500.14,-84.8 500.14,-48.8 589.86,-48.8 589.86,-84.8"/>
<text text-anchor="middle" x="545" y="-62.6" font-family="Times,serif" font-size="14.00">OfferModule</text>
</g>
<!-- OfferModule&#45;&gt;AppModule -->
<g id="edge11" class="edge">
<title>OfferModule&#45;&gt;AppModule</title>
<path fill="none" stroke="black" d="M545,-85.11C545,-104.95 545,-133.8 545,-133.8 545,-133.8 1111.94,-133.8 1111.94,-133.8"/>
<polygon fill="black" stroke="black" points="1111.94,-137.3 1121.94,-133.8 1111.94,-130.3 1111.94,-137.3"/>
</g>
<!-- ResetPasswordModule -->
<g id="node13" class="node">
<title>ResetPasswordModule</title>
<polygon fill="#8dd3c7" stroke="black" points="482.32,-84.8 479.32,-88.8 458.32,-88.8 455.32,-84.8 337.68,-84.8 337.68,-48.8 482.32,-48.8 482.32,-84.8"/>
<text text-anchor="middle" x="410" y="-62.6" font-family="Times,serif" font-size="14.00">ResetPasswordModule</text>
</g>
<!-- ResetPasswordModule&#45;&gt;AppModule -->
<g id="edge12" class="edge">
<title>ResetPasswordModule&#45;&gt;AppModule</title>
<path fill="none" stroke="black" d="M410,-85.08C410,-106.12 410,-137.8 410,-137.8 410,-137.8 1112.12,-137.8 1112.12,-137.8"/>
<polygon fill="black" stroke="black" points="1112.12,-141.3 1122.12,-137.8 1112.12,-134.3 1112.12,-141.3"/>
</g>
<!-- UserProfileModule -->
<g id="node14" class="node">
<title>UserProfileModule</title>
<polygon fill="#8dd3c7" stroke="black" points="320.09,-84.8 317.09,-88.8 296.09,-88.8 293.09,-84.8 195.91,-84.8 195.91,-48.8 320.09,-48.8 320.09,-84.8"/>
<text text-anchor="middle" x="258" y="-62.6" font-family="Times,serif" font-size="14.00">UserProfileModule</text>
</g>
<!-- UserProfileModule&#45;&gt;AppModule -->
<g id="edge13" class="edge">
<title>UserProfileModule&#45;&gt;AppModule</title>
<path fill="none" stroke="black" d="M258,-84.96C258,-107.15 258,-141.8 258,-141.8 258,-141.8 1112.12,-141.8 1112.12,-141.8"/>
<polygon fill="black" stroke="black" points="1112.12,-145.3 1122.12,-141.8 1112.12,-138.3 1112.12,-145.3"/>
</g>
<!-- UserRegistrationModule -->
<g id="node15" class="node">
<title>UserRegistrationModule</title>
<polygon fill="#8dd3c7" stroke="black" points="178.42,-84.8 175.42,-88.8 154.42,-88.8 151.42,-84.8 23.58,-84.8 23.58,-48.8 178.42,-48.8 178.42,-84.8"/>
<text text-anchor="middle" x="101" y="-62.6" font-family="Times,serif" font-size="14.00">UserRegistrationModule</text>
</g>
<!-- UserRegistrationModule&#45;&gt;AppModule -->
<g id="edge14" class="edge">
<title>UserRegistrationModule&#45;&gt;AppModule</title>
<path fill="none" stroke="black" d="M101,-85.12C101,-108.46 101,-145.8 101,-145.8 101,-145.8 1112.33,-145.8 1112.33,-145.8"/>
<polygon fill="black" stroke="black" points="1112.33,-149.3 1122.33,-145.8 1112.33,-142.3 1112.33,-149.3"/>
</g>
<!-- ApiService -->
<g id="node17" class="node">
<title>ApiService</title>
<ellipse fill="#fdb462" stroke="black" cx="2345" cy="-66.8" rx="54.46" ry="18"/>
<text text-anchor="middle" x="2345" y="-62.6" font-family="Times,serif" font-size="14.00">ApiService</text>
</g>
<!-- ApiService&#45;&gt;AppModule -->
<g id="edge16" class="edge">
<title>ApiService&#45;&gt;AppModule</title>
<path fill="none" stroke="black" d="M2345,-85.12C2345,-108.46 2345,-145.8 2345,-145.8 2345,-145.8 1215.69,-145.8 1215.69,-145.8"/>
<polygon fill="black" stroke="black" points="1215.69,-142.3 1205.69,-145.8 1215.69,-149.3 1215.69,-142.3"/>
</g>
<!-- MessageService -->
<g id="node18" class="node">
<title>MessageService</title>
<ellipse fill="#fdb462" stroke="black" cx="2199" cy="-66.8" rx="73.57" ry="18"/>
<text text-anchor="middle" x="2199" y="-62.6" font-family="Times,serif" font-size="14.00">MessageService</text>
</g>
<!-- MessageService&#45;&gt;AppModule -->
<g id="edge17" class="edge">
<title>MessageService&#45;&gt;AppModule</title>
<path fill="none" stroke="black" d="M2199,-84.96C2199,-107.15 2199,-141.8 2199,-141.8 2199,-141.8 1215.86,-141.8 1215.86,-141.8"/>
<polygon fill="black" stroke="black" points="1215.86,-138.3 1205.86,-141.8 1215.86,-145.3 1215.86,-138.3"/>
</g>
<!-- PostService -->
<g id="node19" class="node">
<title>PostService</title>
<ellipse fill="#fdb462" stroke="black" cx="2051" cy="-66.8" rx="56.77" ry="18"/>
<text text-anchor="middle" x="2051" y="-62.6" font-family="Times,serif" font-size="14.00">PostService</text>
</g>
<!-- PostService&#45;&gt;AppModule -->
<g id="edge18" class="edge">
<title>PostService&#45;&gt;AppModule</title>
<path fill="none" stroke="black" d="M2051,-85.08C2051,-106.12 2051,-137.8 2051,-137.8 2051,-137.8 1215.89,-137.8 1215.89,-137.8"/>
<polygon fill="black" stroke="black" points="1215.89,-134.3 1205.89,-137.8 1215.89,-141.3 1215.89,-134.3"/>
</g>
</g>
</svg>
