<?xml version="1.0" encoding="UTF-8" standalone="no"?>
<!DOCTYPE svg PUBLIC "-//W3C//DTD SVG 1.1//EN"
 "http://www.w3.org/Graphics/SVG/1.1/DTD/svg11.dtd">
<!-- Generated by graphviz version 5.0.0 (20220707.1540)
 -->
<!-- Title: dependencies Pages: 1 -->
<svg width="456pt" height="174pt"
 viewBox="0.00 0.00 456.00 173.80" xmlns="http://www.w3.org/2000/svg" xmlns:xlink="http://www.w3.org/1999/xlink">
<g id="graph0" class="graph" transform="scale(1 1) rotate(0) translate(4 169.8)">
<title>dependencies</title>
<polygon fill="white" stroke="transparent" points="-4,4 -4,-169.8 452,-169.8 452,4 -4,4"/>
<text text-anchor="middle" x="224" y="-8.2" font-family="sans-serif" font-size="14.00">dependencies</text>
<g id="clust1" class="cluster">
<title>cluster_UserProfileModule</title>
<polygon fill="none" stroke="black" stroke-dasharray="1,5" points="8,-32.8 8,-157.8 440,-157.8 440,-32.8 8,-32.8"/>
</g>
<g id="clust2" class="cluster">
<title>cluster_UserProfileModule_declarations</title>
<polygon fill="none" stroke="black" points="270,-40.8 270,-92.8 432,-92.8 432,-40.8 270,-40.8"/>
</g>
<g id="clust7" class="cluster">
<title>cluster_UserProfileModule_providers</title>
<polygon fill="none" stroke="black" points="138,-40.8 138,-92.8 262,-92.8 262,-40.8 138,-40.8"/>
</g>
<g id="clust4" class="cluster">
<title>cluster_UserProfileModule_imports</title>
<polygon fill="none" stroke="black" points="16,-40.8 16,-92.8 130,-92.8 130,-40.8 16,-40.8"/>
</g>
<!-- UserProfileComponent -->
<g id="node1" class="node">
<title>UserProfileComponent</title>
<polygon fill="#ffffb3" stroke="black" points="423.87,-84.8 278.13,-84.8 278.13,-48.8 423.87,-48.8 423.87,-84.8"/>
<text text-anchor="middle" x="351" y="-62.6" font-family="Times,serif" font-size="14.00">UserProfileComponent</text>
</g>
<!-- UserProfileModule -->
<g id="node2" class="node">
<title>UserProfileModule</title>
<polygon fill="#8dd3c7" stroke="black" points="262.09,-149.8 259.09,-153.8 238.09,-153.8 235.09,-149.8 137.91,-149.8 137.91,-113.8 262.09,-113.8 262.09,-149.8"/>
<text text-anchor="middle" x="200" y="-127.6" font-family="Times,serif" font-size="14.00">UserProfileModule</text>
</g>
<!-- UserProfileComponent&#45;&gt;UserProfileModule -->
<g id="edge1" class="edge">
<title>UserProfileComponent&#45;&gt;UserProfileModule</title>
<path fill="none" stroke="black" d="M277.93,-66.8C266.44,-66.8 258.26,-66.8 258.26,-66.8 258.26,-66.8 258.26,-103.69 258.26,-103.69"/>
<polygon fill="black" stroke="black" points="254.76,-103.69 258.26,-113.69 261.76,-103.69 254.76,-103.69"/>
</g>
<!-- ButtonModule -->
<g id="node3" class="node">
<title>ButtonModule</title>
<polygon fill="#8dd3c7" stroke="black" points="121.67,-84.8 118.67,-88.8 97.67,-88.8 94.67,-84.8 24.33,-84.8 24.33,-48.8 121.67,-48.8 121.67,-84.8"/>
<text text-anchor="middle" x="73" y="-62.6" font-family="Times,serif" font-size="14.00">ButtonModule</text>
</g>
<!-- ButtonModule&#45;&gt;UserProfileModule -->
<g id="edge2" class="edge">
<title>ButtonModule&#45;&gt;UserProfileModule</title>
<path fill="none" stroke="black" d="M121.86,-66.8C133.05,-66.8 141.74,-66.8 141.74,-66.8 141.74,-66.8 141.74,-103.69 141.74,-103.69"/>
<polygon fill="black" stroke="black" points="138.24,-103.69 141.74,-113.69 145.24,-103.69 138.24,-103.69"/>
</g>
<!-- ApiService -->
<g id="node4" class="node">
<title>ApiService</title>
<ellipse fill="#fdb462" stroke="black" cx="200" cy="-66.8" rx="54.46" ry="18"/>
<text text-anchor="middle" x="200" y="-62.6" font-family="Times,serif" font-size="14.00">ApiService</text>
</g>
<!-- ApiService&#45;&gt;UserProfileModule -->
<g id="edge3" class="edge">
<title>ApiService&#45;&gt;UserProfileModule</title>
<path fill="none" stroke="black" d="M200,-84.91C200,-84.91 200,-103.79 200,-103.79"/>
<polygon fill="black" stroke="black" points="196.5,-103.79 200,-113.79 203.5,-103.79 196.5,-103.79"/>
</g>
</g>
</svg>
