<?xml version="1.0" encoding="UTF-8" standalone="no"?>
<!DOCTYPE svg PUBLIC "-//W3C//DTD SVG 1.1//EN"
 "http://www.w3.org/Graphics/SVG/1.1/DTD/svg11.dtd">
<!-- Generated by graphviz version 5.0.0 (20220707.1540)
 -->
<!-- Title: dependencies Pages: 1 -->
<svg width="486pt" height="174pt"
 viewBox="0.00 0.00 486.00 173.80" xmlns="http://www.w3.org/2000/svg" xmlns:xlink="http://www.w3.org/1999/xlink">
<g id="graph0" class="graph" transform="scale(1 1) rotate(0) translate(4 169.8)">
<title>dependencies</title>
<polygon fill="white" stroke="transparent" points="-4,4 -4,-169.8 482,-169.8 482,4 -4,4"/>
<text text-anchor="middle" x="239" y="-8.2" font-family="sans-serif" font-size="14.00">dependencies</text>
<g id="clust1" class="cluster">
<title>cluster_UserRegistrationModule</title>
<polygon fill="none" stroke="black" stroke-dasharray="1,5" points="8,-32.8 8,-157.8 470,-157.8 470,-32.8 8,-32.8"/>
</g>
<g id="clust2" class="cluster">
<title>cluster_UserRegistrationModule_declarations</title>
<polygon fill="none" stroke="black" points="270,-40.8 270,-92.8 462,-92.8 462,-40.8 270,-40.8"/>
</g>
<g id="clust4" class="cluster">
<title>cluster_UserRegistrationModule_imports</title>
<polygon fill="none" stroke="black" points="148,-40.8 148,-92.8 262,-92.8 262,-40.8 148,-40.8"/>
</g>
<g id="clust7" class="cluster">
<title>cluster_UserRegistrationModule_providers</title>
<polygon fill="none" stroke="black" points="16,-40.8 16,-92.8 140,-92.8 140,-40.8 16,-40.8"/>
</g>
<!-- UserRegistrationComponent -->
<g id="node1" class="node">
<title>UserRegistrationComponent</title>
<polygon fill="#ffffb3" stroke="black" points="454.2,-84.8 277.8,-84.8 277.8,-48.8 454.2,-48.8 454.2,-84.8"/>
<text text-anchor="middle" x="366" y="-62.6" font-family="Times,serif" font-size="14.00">UserRegistrationComponent</text>
</g>
<!-- UserRegistrationModule -->
<g id="node2" class="node">
<title>UserRegistrationModule</title>
<polygon fill="#8dd3c7" stroke="black" points="282.42,-149.8 279.42,-153.8 258.42,-153.8 255.42,-149.8 127.58,-149.8 127.58,-113.8 282.42,-113.8 282.42,-149.8"/>
<text text-anchor="middle" x="205" y="-127.6" font-family="Times,serif" font-size="14.00">UserRegistrationModule</text>
</g>
<!-- UserRegistrationComponent&#45;&gt;UserRegistrationModule -->
<g id="edge1" class="edge">
<title>UserRegistrationComponent&#45;&gt;UserRegistrationModule</title>
<path fill="none" stroke="black" d="M277.75,-66.8C270.49,-66.8 265.87,-66.8 265.87,-66.8 265.87,-66.8 265.87,-103.69 265.87,-103.69"/>
<polygon fill="black" stroke="black" points="262.37,-103.69 265.87,-113.69 269.37,-103.69 262.37,-103.69"/>
</g>
<!-- ButtonModule -->
<g id="node3" class="node">
<title>ButtonModule</title>
<polygon fill="#8dd3c7" stroke="black" points="253.67,-84.8 250.67,-88.8 229.67,-88.8 226.67,-84.8 156.33,-84.8 156.33,-48.8 253.67,-48.8 253.67,-84.8"/>
<text text-anchor="middle" x="205" y="-62.6" font-family="Times,serif" font-size="14.00">ButtonModule</text>
</g>
<!-- ButtonModule&#45;&gt;UserRegistrationModule -->
<g id="edge2" class="edge">
<title>ButtonModule&#45;&gt;UserRegistrationModule</title>
<path fill="none" stroke="black" d="M205,-84.91C205,-84.91 205,-103.79 205,-103.79"/>
<polygon fill="black" stroke="black" points="201.5,-103.79 205,-113.79 208.5,-103.79 201.5,-103.79"/>
</g>
<!-- ApiService -->
<g id="node4" class="node">
<title>ApiService</title>
<ellipse fill="#fdb462" stroke="black" cx="78" cy="-66.8" rx="54.46" ry="18"/>
<text text-anchor="middle" x="78" y="-62.6" font-family="Times,serif" font-size="14.00">ApiService</text>
</g>
<!-- ApiService&#45;&gt;UserRegistrationModule -->
<g id="edge3" class="edge">
<title>ApiService&#45;&gt;UserRegistrationModule</title>
<path fill="none" stroke="black" d="M132.77,-66.8C139.64,-66.8 144.32,-66.8 144.32,-66.8 144.32,-66.8 144.32,-103.69 144.32,-103.69"/>
<polygon fill="black" stroke="black" points="140.82,-103.69 144.32,-113.69 147.82,-103.69 140.82,-103.69"/>
</g>
</g>
</svg>
