<?xml version="1.0" encoding="UTF-8" standalone="no"?>
<!DOCTYPE svg PUBLIC "-//W3C//DTD SVG 1.1//EN"
 "http://www.w3.org/Graphics/SVG/1.1/DTD/svg11.dtd">
<!-- Generated by graphviz version 5.0.0 (20220707.1540)
 -->
<!-- Title: dependencies Pages: 1 -->
<svg width="508pt" height="174pt"
 viewBox="0.00 0.00 508.00 173.80" xmlns="http://www.w3.org/2000/svg" xmlns:xlink="http://www.w3.org/1999/xlink">
<g id="graph0" class="graph" transform="scale(1 1) rotate(0) translate(4 169.8)">
<title>dependencies</title>
<polygon fill="white" stroke="transparent" points="-4,4 -4,-169.8 504,-169.8 504,4 -4,4"/>
<text text-anchor="middle" x="250" y="-8.2" font-family="sans-serif" font-size="14.00">dependencies</text>
<g id="clust1" class="cluster">
<title>cluster_MessageModule</title>
<polygon fill="none" stroke="black" stroke-dasharray="1,5" points="8,-32.8 8,-157.8 492,-157.8 492,-32.8 8,-32.8"/>
</g>
<g id="clust2" class="cluster">
<title>cluster_MessageModule_declarations</title>
<polygon fill="none" stroke="black" points="338,-40.8 338,-92.8 484,-92.8 484,-40.8 338,-40.8"/>
</g>
<g id="clust7" class="cluster">
<title>cluster_MessageModule_providers</title>
<polygon fill="none" stroke="black" points="16,-40.8 16,-92.8 330,-92.8 330,-40.8 16,-40.8"/>
</g>
<!-- MessageComponent -->
<g id="node1" class="node">
<title>MessageComponent</title>
<polygon fill="#ffffb3" stroke="black" points="476.32,-84.8 345.68,-84.8 345.68,-48.8 476.32,-48.8 476.32,-84.8"/>
<text text-anchor="middle" x="411" y="-62.6" font-family="Times,serif" font-size="14.00">MessageComponent</text>
</g>
<!-- MessageModule -->
<g id="node2" class="node">
<title>MessageModule</title>
<polygon fill="#8dd3c7" stroke="black" points="302.04,-149.8 299.04,-153.8 278.04,-153.8 275.04,-149.8 193.96,-149.8 193.96,-113.8 302.04,-113.8 302.04,-149.8"/>
<text text-anchor="middle" x="248" y="-127.6" font-family="Times,serif" font-size="14.00">MessageModule</text>
</g>
<!-- MessageComponent&#45;&gt;MessageModule -->
<g id="edge1" class="edge">
<title>MessageComponent&#45;&gt;MessageModule</title>
<path fill="none" stroke="black" d="M411,-84.91C411,-104.14 411,-131.8 411,-131.8 411,-131.8 312.28,-131.8 312.28,-131.8"/>
<polygon fill="black" stroke="black" points="312.28,-128.3 302.28,-131.8 312.28,-135.3 312.28,-128.3"/>
</g>
<!-- MessageService -->
<g id="node3" class="node">
<title>MessageService</title>
<ellipse fill="#fdb462" stroke="black" cx="248" cy="-66.8" rx="73.57" ry="18"/>
<text text-anchor="middle" x="248" y="-62.6" font-family="Times,serif" font-size="14.00">MessageService</text>
</g>
<!-- MessageService&#45;&gt;MessageModule -->
<g id="edge2" class="edge">
<title>MessageService&#45;&gt;MessageModule</title>
<path fill="none" stroke="black" d="M248,-84.91C248,-84.91 248,-103.79 248,-103.79"/>
<polygon fill="black" stroke="black" points="244.5,-103.79 248,-113.79 251.5,-103.79 244.5,-103.79"/>
</g>
<!-- SocketService -->
<g id="node4" class="node">
<title>SocketService</title>
<ellipse fill="#fdb462" stroke="black" cx="90" cy="-66.8" rx="66.05" ry="18"/>
<text text-anchor="middle" x="90" y="-62.6" font-family="Times,serif" font-size="14.00">SocketService</text>
</g>
<!-- SocketService&#45;&gt;MessageModule -->
<g id="edge3" class="edge">
<title>SocketService&#45;&gt;MessageModule</title>
<path fill="none" stroke="black" d="M90,-84.91C90,-104.14 90,-131.8 90,-131.8 90,-131.8 183.63,-131.8 183.63,-131.8"/>
<polygon fill="black" stroke="black" points="183.63,-135.3 193.63,-131.8 183.63,-128.3 183.63,-135.3"/>
</g>
</g>
</svg>
