<?xml version="1.0" encoding="UTF-8" standalone="no"?>
<!DOCTYPE svg PUBLIC "-//W3C//DTD SVG 1.1//EN"
 "http://www.w3.org/Graphics/SVG/1.1/DTD/svg11.dtd">
<!-- Generated by graphviz version 5.0.0 (20220707.1540)
 -->
<!-- Title: dependencies Pages: 1 -->
<svg width="842pt" height="174pt"
 viewBox="0.00 0.00 842.00 173.80" xmlns="http://www.w3.org/2000/svg" xmlns:xlink="http://www.w3.org/1999/xlink">
<g id="graph0" class="graph" transform="scale(1 1) rotate(0) translate(4 169.8)">
<title>dependencies</title>
<polygon fill="white" stroke="transparent" points="-4,4 -4,-169.8 838,-169.8 838,4 -4,4"/>
<text text-anchor="middle" x="417" y="-8.2" font-family="sans-serif" font-size="14.00">dependencies</text>
<g id="clust1" class="cluster">
<title>cluster_AdminDashboardModule</title>
<polygon fill="none" stroke="black" stroke-dasharray="1,5" points="8,-32.8 8,-157.8 826,-157.8 826,-32.8 8,-32.8"/>
</g>
<g id="clust2" class="cluster">
<title>cluster_AdminDashboardModule_declarations</title>
<polygon fill="none" stroke="black" points="174,-40.8 174,-92.8 818,-92.8 818,-40.8 174,-40.8"/>
</g>
<g id="clust10" class="cluster">
<title>cluster_AdminDashboardModule_providers</title>
<polygon fill="none" stroke="black" points="16,-40.8 16,-92.8 166,-92.8 166,-40.8 16,-40.8"/>
</g>
<!-- AdminDashboardComponent -->
<g id="node1" class="node">
<title>AdminDashboardComponent</title>
<polygon fill="#ffffb3" stroke="black" points="810.37,-84.8 629.63,-84.8 629.63,-48.8 810.37,-48.8 810.37,-84.8"/>
<text text-anchor="middle" x="720" y="-62.6" font-family="Times,serif" font-size="14.00">AdminDashboardComponent</text>
</g>
<!-- AdminDashboardModule -->
<g id="node5" class="node">
<title>AdminDashboardModule</title>
<polygon fill="#8dd3c7" stroke="black" points="451.59,-149.8 448.59,-153.8 427.59,-153.8 424.59,-149.8 292.41,-149.8 292.41,-113.8 451.59,-113.8 451.59,-149.8"/>
<text text-anchor="middle" x="372" y="-127.6" font-family="Times,serif" font-size="14.00">AdminDashboardModule</text>
</g>
<!-- AdminDashboardComponent&#45;&gt;AdminDashboardModule -->
<g id="edge1" class="edge">
<title>AdminDashboardComponent&#45;&gt;AdminDashboardModule</title>
<path fill="none" stroke="black" d="M720,-84.91C720,-104.14 720,-131.8 720,-131.8 720,-131.8 461.84,-131.8 461.84,-131.8"/>
<polygon fill="black" stroke="black" points="461.84,-128.3 451.84,-131.8 461.84,-135.3 461.84,-128.3"/>
</g>
<!-- CategoryChartComponent -->
<g id="node2" class="node">
<title>CategoryChartComponent</title>
<polygon fill="#ffffb3" stroke="black" points="611.75,-84.8 448.25,-84.8 448.25,-48.8 611.75,-48.8 611.75,-84.8"/>
<text text-anchor="middle" x="530" y="-62.6" font-family="Times,serif" font-size="14.00">CategoryChartComponent</text>
</g>
<!-- CategoryChartComponent&#45;&gt;AdminDashboardModule -->
<g id="edge2" class="edge">
<title>CategoryChartComponent&#45;&gt;AdminDashboardModule</title>
<path fill="none" stroke="black" d="M448.03,-66.8C442.66,-66.8 439.33,-66.8 439.33,-66.8 439.33,-66.8 439.33,-103.69 439.33,-103.69"/>
<polygon fill="black" stroke="black" points="435.83,-103.69 439.33,-113.69 442.83,-103.69 435.83,-103.69"/>
</g>
<!-- OffersComponent -->
<g id="node3" class="node">
<title>OffersComponent</title>
<polygon fill="#ffffb3" stroke="black" points="430.59,-84.8 313.41,-84.8 313.41,-48.8 430.59,-48.8 430.59,-84.8"/>
<text text-anchor="middle" x="372" y="-62.6" font-family="Times,serif" font-size="14.00">OffersComponent</text>
</g>
<!-- OffersComponent&#45;&gt;AdminDashboardModule -->
<g id="edge3" class="edge">
<title>OffersComponent&#45;&gt;AdminDashboardModule</title>
<path fill="none" stroke="black" d="M372,-84.91C372,-84.91 372,-103.79 372,-103.79"/>
<polygon fill="black" stroke="black" points="368.5,-103.79 372,-113.79 375.5,-103.79 368.5,-103.79"/>
</g>
<!-- UsersComponent -->
<g id="node4" class="node">
<title>UsersComponent</title>
<polygon fill="#ffffb3" stroke="black" points="295.71,-84.8 182.29,-84.8 182.29,-48.8 295.71,-48.8 295.71,-84.8"/>
<text text-anchor="middle" x="239" y="-62.6" font-family="Times,serif" font-size="14.00">UsersComponent</text>
</g>
<!-- UsersComponent&#45;&gt;AdminDashboardModule -->
<g id="edge4" class="edge">
<title>UsersComponent&#45;&gt;AdminDashboardModule</title>
<path fill="none" stroke="black" d="M295.69,-66.8C301.05,-66.8 304.53,-66.8 304.53,-66.8 304.53,-66.8 304.53,-103.69 304.53,-103.69"/>
<polygon fill="black" stroke="black" points="301.03,-103.69 304.53,-113.69 308.03,-103.69 301.03,-103.69"/>
</g>
<!-- AdminService -->
<g id="node6" class="node">
<title>AdminService</title>
<ellipse fill="#fdb462" stroke="black" cx="91" cy="-66.8" rx="66.64" ry="18"/>
<text text-anchor="middle" x="91" y="-62.6" font-family="Times,serif" font-size="14.00">AdminService</text>
</g>
<!-- AdminService&#45;&gt;AdminDashboardModule -->
<g id="edge5" class="edge">
<title>AdminService&#45;&gt;AdminDashboardModule</title>
<path fill="none" stroke="black" d="M91,-84.91C91,-104.14 91,-131.8 91,-131.8 91,-131.8 282.23,-131.8 282.23,-131.8"/>
<polygon fill="black" stroke="black" points="282.23,-135.3 292.23,-131.8 282.23,-128.3 282.23,-135.3"/>
</g>
</g>
</svg>
